PathFileType	4	(X/Y/Z)	Patient4_TMGait_0pt4_02_left_12.trc.trc
DataRate	CameraRate	NumFrames	NumMarkers	Units	OrigDataRate	OrigDataStartFrame	OrigNumFrames
74.866310160428	74.866310160428	4	33	mm	74.866310160428	1	       141
Frame#	Time	Sacral			L.Shoulder			Chest			R.Shoulder			Neck			R.ASIS			L.ASIS			R.Thigh.Superior			R.Thigh.Lateral			R.Thigh.Inferior			R.Patella			L.Thigh.Superior			L.Thigh.Lateral			L.Thigh.Inferior			L.Patella			L.Shank.Superior			L.Shank.Lateral			L.Shank.Inferior			R.Shank.Superior			R.Shank.Lateral			R.Shank.Inferior			R.Heel			R.Midfoot.Superior			R.Midfoot.Lateral			R.Toe			L.Heel			L.Midfoot.Lateral			L.Midfoot.Superior			L.Toe			L.Elbow			L.Wrist			R.Elbow			R.Wrist			
		X1	Y1	Z1	X2	Y2	Z2	X3	Y3	Z3	X4	Y4	Z4	X5	Y5	Z5	X6	Y6	Z6	X7	Y7	Z7	X8	Y8	Z8	X9	Y9	Z9	X10	Y10	Z10	X11	Y11	Z11	X12	Y12	Z12	X13	Y13	Z13	X14	Y14	Z14	X15	Y15	Z15	X16	Y16	Z16	X17	Y17	Z17	X18	Y18	Z18	X19	Y19	Z19	X20	Y20	Z20	X21	Y21	Z21	X22	Y22	Z22	X23	Y23	Z23	X24	Y24	Z24	X25	Y25	Z25	X26	Y26	Z26	X27	Y27	Z27	X28	Y28	Z28	X29	Y29	Z29	X30	Y30	Z30	X31	Y31	Z31	X32	Y32	Z32	X33	Y33	Z33	

1	16.000000000000	858.710850441117	1006.067557535556	497.804360211432	1038.755953575748	1433.678980704486	309.276418980832	1142.685170859725	1366.926778311732	470.107171868400	1061.203042644369	1442.937105781218	644.115707979140	1028.682737735023	1497.003753664512	463.748683221743	1091.011889875044	945.027898985011	610.131159650939	1069.339867113492	963.743660955289	336.587996056075	1125.581062825067	739.930345013473	580.814755699339	1040.018948112229	633.172896137862	640.739955310973	1114.696764029145	578.708040173195	560.246148150715	1110.689750682151	492.249887801997	564.787422087713	1148.734621337698	776.108419783154	355.489858426315	1095.184192180024	650.982594703648	277.422695437822	1202.029383877628	587.429528116658	328.402980235063	1212.985911076143	499.627812063289	320.639538476404	1147.889743161428	431.752121152405	315.820891381954	1005.871407816054	385.115498229107	271.678283820737	999.804499141431	254.385059024520	326.343579909437	1081.924517477593	403.804582258057	571.759008004368	1009.282263697328	301.283805587011	634.684253515839	1047.444405349217	206.109515425174	568.609010600941	911.067694008735	43.005465883221	537.280536116603	1081.748595778052	96.838867434273	575.647102675373	993.634245379674	37.169412348520	613.516829134256	1202.141733913289	43.308759393928	604.294891887694	812.251699720929	184.165476998367	370.611189354338	867.917611793518	139.768375805099	288.035960333860	974.159308283827	151.187193822542	305.787659261315	1054.301471857787	41.125872005740	273.980498926159	986.024281794489	1086.006529002346	190.819076223670	1041.151777795662	831.909175658903	159.566516739829	1049.563444396970	1121.280928011965	808.440207810451	1292.519665246473	1058.965778799731	780.505681976752	
2	16.013357142857	857.304460573673	1007.507608410655	500.120818083859	1037.137463825668	1434.468019016568	310.842552190745	1142.847886887031	1366.985923258039	470.144908724129	1064.215157129002	1443.175646284219	645.226821824573	1029.496343626724	1497.555450449882	465.465980677807	1090.118041029275	944.885347563422	610.363967699251	1066.422381073272	964.743592922677	337.032242458580	1122.025936728609	739.376288448632	580.752250509649	1035.838011717037	633.425381681101	641.351619355256	1109.391618889407	578.304897455288	560.447251261504	1104.896984981063	492.248232688615	565.184879229580	1146.903990287860	779.033325661775	355.877033331697	1094.825300482929	653.476491437812	277.482964804601	1202.393043964180	591.141179745495	328.042530822493	1214.920673800078	504.265075014067	320.057865569762	1152.855426583222	434.900400743945	315.062009468345	1013.610034885981	381.471315430034	271.509391355192	1015.009872869043	250.661970480654	324.988103975832	1076.016897910992	403.904813559843	572.190324172892	1003.368877058217	301.455148117454	635.277195261594	1041.636325936844	206.240866962126	568.989885858654	905.383819996894	43.003087192919	537.485514065918	1076.058782592068	96.756407288117	575.751578653907	987.902301707550	37.123223057215	613.624812870819	1196.411438563294	43.275161903179	604.379586053479	833.005886427341	169.883560683391	370.084872058409	889.733179748031	129.922947323060	286.457911702976	994.822531313055	147.115802062232	303.461961439397	1080.268138301027	42.829605431971	269.374238317796	976.487491526884	1087.948360221713	193.961837213001	1026.638378586089	833.097979672211	161.783526930065	1058.772927213559	1122.162031091827	810.017329249751	1302.439040425846	1068.500494851386	777.910016762357	
3	16.026714285714	855.915972974789	1008.884540558901	502.373770568534	1035.516993705352	1435.218490786336	312.390019115298	1142.990409288037	1367.004081355266	470.168231387575	1067.167692736410	1443.349857126108	646.313239532259	1030.293609209283	1498.056007129502	467.164796513776	1089.230849363733	944.718161104619	610.562557573116	1063.556003222478	965.680816039674	337.443455424818	1118.504328074432	738.822229775885	580.667637607552	1031.717879074705	633.656535862862	641.950859732955	1104.164479166110	577.896261423244	560.645632944607	1099.177026662327	492.229987076269	565.581463625629	1145.002272147555	781.750433721349	356.226663272807	1094.292876781986	655.788103014289	277.533066064813	1202.486262781586	594.576685623796	327.779718755933	1216.559590678211	508.700593086433	319.540144124721	1157.592608695248	437.926368798960	314.313086667025	1021.322072728700	377.627236330323	271.282723286842	1030.316720613945	246.867859456571	323.552640464885	1070.187279479109	403.994951402717	572.621235869214	997.520165544688	301.613602516429	635.847817701697	1035.878259436313	206.359198476085	569.361241969590	899.732665520261	42.999187637705	537.682913102649	1070.403922454880	96.679946238477	575.858003726590	982.207337023995	37.078868906496	613.728999734281	1190.717028747320	43.238443542869	604.461341078646	854.146674996511	155.466405495739	369.401135549412	911.894770825826	120.029125451496	284.737804930966	1015.700152261450	143.057542082963	301.047722420786	1106.423680599442	44.722969264733	264.700531872925	967.110892502069	1089.854493042025	197.077684953939	1012.352518128250	834.280172605929	163.987337388617	1067.945398712425	1122.953959241357	811.488621343334	1312.244750384453	1077.902560996574	775.239488561938	
4	16.040071428571	854.563373555383	1010.140693248498	504.496080609509	1033.915035064814	1435.891551194784	313.879726296063	1143.100377275123	1366.943449174248	470.155443192983	1069.995659314954	1443.408081533805	647.335438051257	1031.064604160571	1498.460717317557	468.804653388680	1088.357097688631	944.507176228299	610.694211194499	1060.787216287962	966.497083338731	337.786951412230	1115.066051891733	738.267525840759	580.540199592375	1027.729745880299	633.846082339297	642.516341384954	1099.103181256940	577.476277159591	560.828818686131	1093.614095563887	492.179505863904	565.963785080134	1142.963140133724	784.070573077626	356.509207067090	1093.440321816554	657.764705391300	277.547248180770	1202.080598023926	597.498260336526	327.680648013669	1217.642388723243	512.754292132691	319.144283685900	1161.881968125167	440.732981814528	313.592422040356	1028.961087179435	373.490667279522	270.944759251584	1045.709171761406	243.038347662189	321.997705241498	1064.518549653462	404.061512179802	573.038413523569	991.809692829459	301.745608351034	636.368465404226	1030.226594885620	206.452526015774	569.708252533038	894.149394152223	42.993403124349	537.865282042580	1064.820794382089	96.610751539986	575.960659138836	976.588295572324	37.038423405843	613.825904317232	1185.095897722106	43.197545115983	604.537758513831	875.852441391754	141.009225344442	368.440908884015	934.568276273171	110.192230017486	282.803192128600	1036.845441757356	139.116963696386	298.525102992151	1132.760819184064	47.001015386606	260.038053103784	958.091518907920	1091.681151471336	200.113803308703	998.572386699705	835.439079159499	166.150111197552	1077.013836347506	1123.574943646496	812.718883962107	1321.798872380110	1086.997121788548	772.413014066302	
